<svg xmlns="http://www.w3.org/2000/svg" xmlns:xlink="http://www.w3.org/1999/xlink" viewBox="0,0,256,256" width="48px" height="48px"><g fill="#fb6d6d" fill-rule="nonzero" stroke="none" stroke-width="1" stroke-linecap="butt" stroke-linejoin="miter" stroke-miterlimit="10" stroke-dasharray="" stroke-dashoffset="0" font-family="none" font-weight="none" font-size="none" text-anchor="none" style="mix-blend-mode: normal"><g transform="scale(5.33333,5.33333)"><path d="M22,1c-2.19733,0 -4,1.80267 -4,4v1h-9c-1.64446,0 -3,1.35443 -3,3v2c0,1.64557 1.35554,3 3,3h24c0.36064,0.0051 0.69608,-0.18438 0.87789,-0.49587c0.18181,-0.3115 0.18181,-0.69676 0,-1.00825c-0.18181,-0.3115 -0.51725,-0.50097 -0.87789,-0.49587h-24c-0.56354,0 -1,-0.43557 -1,-1v-2c0,-0.56443 0.43646,-1 1,-1h10c0.55226,-0.00006 0.99994,-0.44774 1,-1v-2c0,-1.11667 0.88333,-2 2,-2h4c1.11667,0 2,0.88333 2,2v2c0.00006,0.55226 0.44774,0.99994 1,1h10c0.56354,0 1,0.43557 1,1v2c0,0.56443 -0.43646,1 -1,1h-1c-0.26589,0.00002 -0.52082,0.10593 -0.70846,0.2943c-0.18764,0.18838 -0.29255,0.44372 -0.29154,0.7096l0.10547,27.07617c-0.04455,1.63535 -1.36204,2.91992 -2.99805,2.91992h-20.08203c-1.67641,0 -3.01058,-1.3432 -3,-3.01953c0.00001,-0.00195 0.00001,-0.00391 0,-0.00586l-0.02539,-22.97656c0.00435,-0.36061 -0.18579,-0.69564 -0.49763,-0.8768c-0.31183,-0.18117 -0.69705,-0.18042 -1.00817,0.00197c-0.31112,0.18238 -0.49995,0.51815 -0.4942,0.87874l0.02539,22.9668c-0.01742,2.76167 2.23841,5.03125 5,5.03125h20.08203c2.69799,0 4.92459,-2.16859 4.99805,-4.86523c0.00016,-0.01042 0.00016,-0.02083 0,-0.03125l-0.10156,-26.10547c1.64235,-0.00257 2.99609,-1.35404 2.99609,-2.99805v-2c0,-1.64557 -1.35554,-3 -3,-3h-9v-1c0,-2.19733 -1.80267,-4 -4,-4zM16.98438,19.98633c-0.55152,0.00862 -0.99193,0.46214 -0.98437,1.01367v17c-0.0051,0.36064 0.18438,0.69608 0.49587,0.87789c0.3115,0.18181 0.69676,0.18181 1.00825,0c0.3115,-0.18181 0.50097,-0.51725 0.49587,-0.87789v-17c0.0037,-0.2703 -0.10218,-0.53059 -0.29351,-0.72155c-0.19133,-0.19097 -0.45182,-0.29634 -0.72212,-0.29212zM23.98438,19.98633c-0.55152,0.00862 -0.99193,0.46214 -0.98437,1.01367v17c-0.0051,0.36064 0.18438,0.69608 0.49587,0.87789c0.3115,0.18181 0.69676,0.18181 1.00825,0c0.3115,-0.18181 0.50097,-0.51725 0.49587,-0.87789v-17c0.0037,-0.2703 -0.10218,-0.53059 -0.29351,-0.72155c-0.19133,-0.19097 -0.45182,-0.29634 -0.72212,-0.29212zM30.98438,19.98633c-0.55152,0.00862 -0.99193,0.46214 -0.98437,1.01367v17c-0.0051,0.36064 0.18438,0.69608 0.49587,0.87789c0.3115,0.18181 0.69676,0.18181 1.00825,0c0.3115,-0.18181 0.50097,-0.51725 0.49587,-0.87789v-17c0.0037,-0.2703 -0.10218,-0.53059 -0.29351,-0.72155c-0.19133,-0.19097 -0.45182,-0.29634 -0.72212,-0.29212z"></path></g></g></svg>